<svg width="25" height="24" viewBox="0 0 25 24" fill="none" xmlns="http://www.w3.org/2000/svg">
<path d="M12.334 2C9.71398 2 7.58398 4.13 7.58398 6.75C7.58398 9.32 9.59398 11.4 12.214 11.49C12.294 11.48 12.374 11.48 12.434 11.49C12.454 11.49 12.464 11.49 12.484 11.49C12.494 11.49 12.494 11.49 12.504 11.49C15.064 11.4 17.074 9.32 17.084 6.75C17.084 4.13 14.954 2 12.334 2Z" fill="#B9B9B9"/>
<path d="M17.4149 14.15C14.6249 12.29 10.0749 12.29 7.26492 14.15C5.99492 15 5.29492 16.15 5.29492 17.38C5.29492 18.61 5.99492 19.75 7.25492 20.59C8.65492 21.53 10.4949 22 12.3349 22C14.1749 22 16.0149 21.53 17.4149 20.59C18.6749 19.74 19.3749 18.6 19.3749 17.36C19.3649 16.13 18.6749 14.99 17.4149 14.15Z" fill="#B9B9B9"/>
</svg>
