<svg width="129" height="33" viewBox="0 0 129 33" fill="none" xmlns="http://www.w3.org/2000/svg">
<rect x="0.645996" y="0.333374" width="127.708" height="32" rx="16" fill="#B9B9B9" fill-opacity="0.3"/>
<path d="M28.5717 5.37949C29.2498 5.37949 29.8883 5.64383 30.3685 6.124L38.7829 14.5385C39.2631 15.0186 39.5275 15.6559 39.5275 16.3353C39.5275 17.0146 39.2631 17.6519 38.7829 18.1321L30.3685 26.5465C29.8883 27.0267 29.2511 27.291 28.5717 27.291C27.8923 27.291 27.2551 27.0267 26.7749 26.5465L18.3604 18.1321C17.8803 17.6519 17.6159 17.0146 17.6159 16.3353C17.6159 15.6559 17.8803 15.0186 18.3604 14.5385L26.7749 6.12273C27.2551 5.64256 27.8923 5.37821 28.5717 5.37821V5.37949ZM28.5717 4.40765C27.6726 4.40765 26.7749 4.7499 26.0891 5.43568L17.6747 13.8501C16.3031 15.2217 16.3031 17.445 17.6747 18.8166L26.0891 27.231C26.7749 27.9168 27.6739 28.259 28.5717 28.259C29.4695 28.259 30.3685 27.9168 31.0543 27.231L39.4687 18.8166C40.8403 17.445 40.8403 15.2217 39.4687 13.8501L31.0543 5.43568C30.3685 4.7499 29.4695 4.40765 28.5717 4.40765Z" fill="#FDC82E"/>
<path d="M26.7627 13.2618L28.0985 19.3929C28.1624 19.6866 28.3973 19.8833 28.6221 19.8347L30.0907 19.5142C30.3154 19.4657 30.447 19.1873 30.3831 18.8948L29.0473 12.7637C28.9835 12.47 28.7485 12.2733 28.5238 12.3219L27.0552 12.6424C26.8304 12.6909 26.6989 12.9693 26.7627 13.2618Z" fill="#FDC82E"/>
<path d="M31.0995 15.2258L32.1441 20.1501L21.3403 25.2212C20.7107 25.5162 21.0338 26.4664 21.712 26.3195L37.956 22.7795C38.44 22.6748 38.6098 22.072 38.2535 21.7285L31.36 15.0802C31.2489 14.973 31.0663 15.0738 31.0982 15.2258H31.0995Z" fill="#FDC82E"/>
<path d="M31.255 15.1651C31.255 15.1651 31.2652 15.1651 31.2729 15.174L38.1664 21.8211C38.2992 21.9488 38.3477 22.1314 38.2979 22.3089C38.2481 22.4864 38.1102 22.6154 37.9301 22.655L21.6861 26.195C21.6478 26.2039 21.6095 26.2077 21.5737 26.2077C21.3323 26.2077 21.1842 26.0251 21.1433 25.8438C21.105 25.6739 21.1523 25.4517 21.3962 25.3381L32.2 20.2669L32.2919 20.2235L32.2715 20.1239L31.2269 15.1996C31.2243 15.1894 31.2269 15.183 31.2307 15.1766C31.2371 15.1689 31.2473 15.1638 31.2563 15.1638M31.2563 15.0361C31.1643 15.0361 31.0788 15.1179 31.1017 15.2251L32.1464 20.1494L21.3426 25.2206C20.7589 25.4951 20.9939 26.3342 21.575 26.3342C21.6197 26.3342 21.6656 26.329 21.7142 26.3188L37.9582 22.7789C38.4422 22.6741 38.612 22.0714 38.2558 21.7278L31.3623 15.0795C31.3303 15.0489 31.292 15.0349 31.255 15.0349L31.2563 15.0361Z" fill="#FDC82E"/>
<path d="M32.1482 20.1507L27.6236 23.9052C27.1536 24.2947 27.5227 25.0533 28.1204 24.9243L37.9613 22.7801C38.4453 22.6754 38.6151 22.0727 38.2588 21.7291L31.3653 15.0808C31.2542 14.9736 31.0716 15.0744 31.1035 15.2264L32.1482 20.1507Z" fill="#FDC82E"/>
<path d="M31.2569 15.165C31.2569 15.165 31.2671 15.165 31.2748 15.1739L38.1683 21.8222C38.3011 21.9499 38.3496 22.1326 38.2998 22.3101C38.25 22.4876 38.1121 22.6166 37.932 22.6561L28.0911 24.8003C28.0554 24.808 28.0183 24.8118 27.9839 24.8118C27.7961 24.8118 27.6314 24.6917 27.5637 24.5066C27.496 24.3201 27.5484 24.1324 27.7029 24.0047L32.2275 20.2502L32.2875 20.2004L32.2709 20.125L31.2263 15.2007C31.2237 15.1905 31.2263 15.1841 31.2301 15.1778C31.2365 15.1701 31.2467 15.165 31.2556 15.165M31.2556 15.0373C31.1637 15.0373 31.0781 15.119 31.1011 15.2263L32.1457 20.1506L27.6212 23.9051C27.187 24.2652 27.4692 24.9382 27.9839 24.9382C28.0273 24.9382 28.072 24.9331 28.1179 24.9229L37.9589 22.7787C38.4429 22.674 38.6127 22.0713 38.2564 21.7277L31.3629 15.0794C31.331 15.0488 31.2927 15.0347 31.2556 15.0347V15.0373Z" fill="#FDC82E"/>
<path d="M31.102 15.2262L32.1466 20.1505L30.8338 23.398C30.6589 23.8322 31.0407 24.2856 31.4992 24.186L37.9585 22.7787C38.4425 22.674 38.6123 22.0712 38.256 21.7277L31.3625 15.0794C31.2514 14.9721 31.0688 15.073 31.1007 15.225L31.102 15.2262Z" fill="#FDC82E"/>
<path d="M31.2566 15.1644C31.2566 15.1644 31.2668 15.1644 31.2744 15.1734L38.1679 21.8217C38.3007 21.9494 38.3493 22.132 38.2995 22.3095C38.2497 22.487 38.1117 22.616 37.9317 22.6556L31.4724 24.0629C31.4392 24.0706 31.4047 24.0744 31.3715 24.0744C31.2221 24.0744 31.0816 23.999 30.996 23.8713C30.9105 23.7449 30.8952 23.5904 30.9526 23.4474L32.2654 20.1998L32.2795 20.1641L32.2718 20.1258L31.2272 15.2015C31.2246 15.1913 31.2272 15.1849 31.231 15.1785C31.2374 15.1708 31.2476 15.1657 31.2566 15.1657M31.2566 15.038C31.1646 15.038 31.079 15.1197 31.102 15.227L32.1467 20.1513L30.8339 23.3988C30.6755 23.7922 30.9731 24.2008 31.3715 24.2008C31.4136 24.2008 31.4558 24.1957 31.4992 24.1868L37.9585 22.7795C38.4425 22.6747 38.6123 22.072 38.256 21.7285L31.3626 15.0802C31.3306 15.0495 31.2923 15.0355 31.2553 15.0355L31.2566 15.038Z" fill="#FDC82E"/>
<path d="M31.1023 15.2259L32.1469 20.1502L38.0507 22.1756C38.2972 22.2598 38.4875 21.9508 38.2998 21.7695L31.3641 15.0816C31.253 14.9743 31.0704 15.0752 31.1023 15.2271V15.2259Z" fill="#FDC82E"/>
<path d="M31.2569 15.165C31.2569 15.165 31.2672 15.165 31.2748 15.1739L38.2105 21.8618C38.2603 21.9091 38.2488 21.9601 38.2386 21.987C38.2245 22.0214 38.1887 22.0636 38.1338 22.0636C38.1211 22.0636 38.1057 22.061 38.0917 22.0559L32.2569 20.0535L31.2276 15.1995C31.225 15.1893 31.2276 15.1829 31.2314 15.1765C31.2378 15.1688 31.248 15.1637 31.2569 15.1637M31.2569 15.036C31.165 15.036 31.0794 15.1177 31.1024 15.225L32.147 20.1493L38.0508 22.1747C38.0789 22.1849 38.107 22.1887 38.1338 22.1887C38.3369 22.1887 38.4646 21.9282 38.2986 21.7673L31.3629 15.0794C31.331 15.0488 31.2927 15.0347 31.2557 15.0347L31.2569 15.036Z" fill="#FDC82E"/>
<path d="M31.098 15.2256L32.1427 20.1499L21.3389 25.2211C20.7093 25.5161 21.0324 26.4662 21.7105 26.3193L37.9545 22.7794C38.4385 22.6746 38.6084 22.0719 38.2521 21.7283L31.3586 15.08C31.2475 14.9728 31.0648 15.0737 31.0968 15.2256H31.098Z" fill="#FDC82E"/>
<path d="M32.1418 20.15L27.6172 23.9045C27.1473 24.294 27.5164 25.0525 28.114 24.9236L37.9549 22.7794C38.4389 22.6747 38.6088 22.0719 38.2525 21.7284L31.359 15.0801C31.2479 14.9728 31.0653 15.0737 31.0972 15.2257L32.1418 20.15Z" fill="#FDC82E"/>
<path d="M31.0981 15.2255L32.1427 20.1498L30.8299 23.3973C30.655 23.8315 31.0368 24.2849 31.4953 24.1852L37.9546 22.7779C38.4386 22.6732 38.6084 22.0705 38.2521 21.7269L31.3586 15.0786C31.2475 14.9714 31.0649 15.0723 31.0968 15.2242L31.0981 15.2255Z" fill="#FDC82E"/>
<path d="M31.0974 15.2259L32.1421 20.1502L38.0458 22.1756C38.2923 22.2599 38.4826 21.9509 38.2949 21.7695L31.3592 15.0816C31.2481 14.9744 31.0655 15.0752 31.0974 15.2272V15.2259Z" fill="#FDC82E"/>
<path d="M26.0424 16.9312L24.9978 12.0069L35.8016 6.93578C36.4312 6.64078 36.1081 5.69066 35.43 5.83752L19.186 9.37749C18.702 9.48221 18.5321 10.085 18.8884 10.4285L25.7819 17.0768C25.893 17.1841 26.0756 17.0832 26.0437 16.9312H26.0424Z" fill="#FDC82E"/>
<path d="M35.5705 5.9501C35.8118 5.9501 35.96 6.13271 36.0008 6.31406C36.0391 6.4839 35.9919 6.70611 35.748 6.81977L24.9442 11.8909L24.8522 11.9343L24.8726 12.0339L25.9173 16.9582C25.9198 16.9684 25.9173 16.9748 25.9134 16.9812C25.9071 16.9889 25.8968 16.994 25.8879 16.994C25.8841 16.994 25.8777 16.994 25.87 16.9851L18.9765 10.338C18.8437 10.2103 18.7952 10.0277 18.845 9.85019C18.8948 9.67269 19.0327 9.5437 19.2128 9.50412L35.4568 5.96414C35.4951 5.95521 35.5334 5.95137 35.5692 5.95137M35.5692 5.82367C35.5245 5.82367 35.4785 5.82878 35.43 5.83899L19.186 9.37897C18.702 9.48368 18.5321 10.0864 18.8884 10.43L25.7819 17.0783C25.8138 17.1089 25.8521 17.123 25.8892 17.123C25.9811 17.123 26.0667 17.0412 26.0437 16.934L24.9991 12.0097L35.8029 6.93853C36.3865 6.66397 36.1515 5.82495 35.5705 5.82495L35.5692 5.82367Z" fill="#FDC82E"/>
<path d="M24.9976 12.0066L29.5222 8.25205C29.9921 7.86255 29.6231 7.10398 29.0254 7.23297L19.1845 9.37713C18.7005 9.48184 18.5306 10.0846 18.8869 10.4281L25.7804 17.0764C25.8915 17.1837 26.0742 17.0828 26.0422 16.9309L24.9976 12.0066Z" fill="#FDC82E"/>
<path d="M29.1607 7.34615C29.3484 7.34615 29.5131 7.46619 29.5808 7.65136C29.6485 7.83781 29.5961 8.02554 29.4416 8.15324L24.917 11.9078L24.857 11.9576L24.8736 12.0329L25.9182 16.9572C25.9208 16.9674 25.9182 16.9738 25.9144 16.9802C25.908 16.9878 25.8978 16.993 25.8889 16.993C25.885 16.993 25.8787 16.993 25.871 16.984L18.9775 10.3357C18.8447 10.208 18.7962 10.0254 18.846 9.84788C18.8958 9.67037 19.0337 9.54139 19.2138 9.5018L29.0547 7.35764C29.0904 7.34998 29.1275 7.34615 29.1619 7.34615M29.1619 7.21844C29.1185 7.21844 29.0738 7.22355 29.0279 7.23377L19.1869 9.37793C18.7029 9.48265 18.5331 10.0854 18.8894 10.4289L25.7829 17.0772C25.8148 17.1079 25.8531 17.1219 25.8901 17.1219C25.9821 17.1219 26.0677 17.0402 26.0447 16.9329L25 12.0086L29.5246 8.25413C29.9588 7.894 29.6766 7.221 29.1619 7.221V7.21844Z" fill="#FDC82E"/>
<path d="M26.0424 16.9317L24.9978 12.0074L26.3106 8.75985C26.4856 8.32566 26.1037 7.87231 25.6453 7.97192L19.186 9.37922C18.702 9.48394 18.5321 10.0867 18.8884 10.4302L25.7819 17.0785C25.893 17.1858 26.0756 17.0849 26.0437 16.9329L26.0424 16.9317Z" fill="#FDC82E"/>
<path d="M25.773 8.08412C25.9224 8.08412 26.0629 8.15947 26.1484 8.28717C26.234 8.4136 26.2493 8.56812 26.1918 8.71115L24.879 11.9587L24.865 11.9944L24.8726 12.0327L25.9173 16.957C25.9198 16.9672 25.9173 16.9736 25.9134 16.98C25.9071 16.9877 25.8968 16.9928 25.8879 16.9928C25.8841 16.9928 25.8777 16.9928 25.87 16.9839L18.9765 10.3356C18.8437 10.2078 18.7952 10.0252 18.845 9.84772C18.8948 9.67021 19.0327 9.54123 19.2128 9.50164L25.6721 8.09434C25.7053 8.08667 25.7398 8.08284 25.773 8.08284M25.773 7.95514C25.7308 7.95514 25.6887 7.96025 25.6453 7.96919L19.186 9.37649C18.702 9.48121 18.5321 10.084 18.8884 10.4275L25.7819 17.0758C25.8138 17.1064 25.8521 17.1205 25.8892 17.1205C25.9811 17.1205 26.0667 17.0388 26.0437 16.9315L24.9991 12.0072L26.3119 8.75968C26.4702 8.36635 26.1727 7.95769 25.7742 7.95769L25.773 7.95514Z" fill="#FDC82E"/>
<path d="M26.0428 16.9308L24.9982 12.0065L19.0944 9.98112C18.8479 9.89684 18.6577 10.2059 18.8454 10.3872L25.781 17.0751C25.8921 17.1824 26.0747 17.0815 26.0428 16.9295V16.9308Z" fill="#FDC82E"/>
<path d="M19.0125 10.0939C19.0253 10.0939 19.0406 10.0964 19.0547 10.1016L24.8895 12.104L25.9188 16.958C25.9213 16.9682 25.9188 16.9746 25.915 16.981C25.9086 16.9887 25.8984 16.9938 25.8894 16.9938C25.8856 16.9938 25.8792 16.9938 25.8715 16.9848L18.9359 10.2969C18.8861 10.2497 18.8976 10.1986 18.9078 10.1718C18.9219 10.1373 18.9576 10.0952 19.0125 10.0952M19.0125 9.96747C18.8095 9.96747 18.6818 10.228 18.8478 10.3889L25.7834 17.0768C25.8153 17.1074 25.8537 17.1215 25.8907 17.1215C25.9826 17.1215 26.0682 17.0397 26.0452 16.9325L25.0006 12.0082L19.0968 9.98279C19.0687 9.97258 19.0406 9.96875 19.0138 9.96875L19.0125 9.96747Z" fill="#FDC82E"/>
<path d="M26.0434 16.931L24.9988 12.0067L35.8026 6.93554C36.4322 6.64054 36.1091 5.69042 35.431 5.83728L19.1869 9.37725C18.7029 9.48197 18.5331 10.0847 18.8894 10.4283L25.7829 17.0766C25.894 17.1838 26.0766 17.0829 26.0447 16.931H26.0434Z" fill="#FDC82E"/>
<path d="M24.9976 12.005L29.5222 8.25046C29.9921 7.86096 29.6231 7.1024 29.0254 7.23138L19.1845 9.37554C18.7005 9.48026 18.5306 10.083 18.8869 10.4265L25.7804 17.0748C25.8915 17.1821 26.0742 17.0812 26.0422 16.9293L24.9976 12.005Z" fill="#FDC82E"/>
<path d="M26.0429 16.9309L24.9983 12.0066L26.3111 8.75912C26.486 8.32493 26.1042 7.87157 25.6457 7.97118L19.1864 9.37849C18.7024 9.48321 18.5326 10.086 18.8889 10.4295L25.7824 17.0778C25.8935 17.1851 26.0761 17.0842 26.0442 16.9322L26.0429 16.9309Z" fill="#FDC82E"/>
<path d="M26.0418 16.9307L24.9972 12.0064L19.0934 9.981C18.847 9.89672 18.6567 10.2058 18.8444 10.3871L25.78 17.075C25.8911 17.1823 26.0738 17.0814 26.0418 16.9294V16.9307Z" fill="#FDC82E"/>
<path d="M50.9565 18.0981C51.1753 18.3129 51.4142 18.4757 51.6717 18.5851C51.9292 18.6945 52.188 18.7492 52.4495 18.7492C52.6683 18.7492 52.8538 18.7052 53.0059 18.6158C53.158 18.5264 53.2341 18.3863 53.2341 18.1915C53.2341 18.0741 53.194 17.9727 53.114 17.8873C53.0339 17.8032 52.8751 17.7058 52.639 17.5964C52.4028 17.487 52.0439 17.3389 51.5636 17.1535C51.3528 17.0694 51.11 16.956 50.8365 16.8119C50.5616 16.6692 50.3001 16.4837 50.0519 16.2555C49.8024 16.0274 49.597 15.7499 49.4315 15.4203C49.2674 15.0921 49.1847 14.7038 49.1847 14.2569C49.1847 13.6752 49.3408 13.1855 49.653 12.7892C49.9652 12.393 50.3788 12.0928 50.8925 11.8913C51.4062 11.6885 51.9719 11.5871 52.5883 11.5871C53.2541 11.5871 53.8264 11.6885 54.3028 11.8913C54.7791 12.0941 55.1713 12.3463 55.4796 12.6505C55.7878 12.9547 56.0212 13.2575 56.1814 13.5617L54.1186 14.7012C53.9839 14.4904 53.8345 14.3236 53.669 14.2008C53.5049 14.0781 53.3381 13.9874 53.1687 13.9287C52.9992 13.87 52.8351 13.8406 52.675 13.8406C52.4802 13.8406 52.3228 13.874 52.2 13.942C52.0773 14.01 52.0159 14.1141 52.0159 14.2582C52.0159 14.4357 52.1026 14.5811 52.2747 14.6945C52.4469 14.8079 52.6777 14.9133 52.9645 15.0107C53.2514 15.1081 53.5676 15.2189 53.9132 15.3456C54.2681 15.4724 54.5843 15.6218 54.8618 15.7952C55.1407 15.9687 55.3782 16.1688 55.577 16.3956C55.7744 16.6238 55.9252 16.8786 56.0266 17.1615C56.128 17.4443 56.1787 17.7579 56.1787 18.1034C56.1787 18.5931 56.0773 19.0254 55.8745 19.4003C55.6717 19.7752 55.3995 20.0861 55.0579 20.3303C54.7164 20.5744 54.3308 20.7599 53.8998 20.8866C53.4702 21.0134 53.0272 21.0761 52.5709 21.0761C51.9385 21.0761 51.3501 20.972 50.8058 20.7666C50.2614 20.5598 49.7918 20.2756 49.3955 19.9127C48.9992 19.5497 48.699 19.1455 48.4976 18.6985L50.3695 17.3323C50.5376 17.6271 50.7324 17.882 50.9512 18.0981H50.9565Z" fill="#FDC82E"/>
<path d="M60.356 11.8424V20.699H57.5088V11.8424H60.356Z" fill="#FDC82E"/>
<path d="M61.2427 11.8424H69.0866V14.3094H66.5569V20.6977H63.7737V14.3094H61.244V11.8424H61.2427Z" fill="#FDC82E"/>
<path d="M77.7953 13.8918C77.403 13.234 76.8373 12.7283 76.0995 12.3734C75.3617 12.0199 74.4784 11.8424 73.4484 11.8424H69.9688V20.699H73.4484C74.4771 20.699 75.3604 20.5215 76.0995 20.168C76.8373 19.8144 77.403 19.3061 77.7953 18.643C78.1876 17.9798 78.3837 17.19 78.3837 16.2707C78.3837 15.3514 78.1876 14.5495 77.7953 13.8918ZM75.2776 17.3581C75.1469 17.6276 74.9761 17.8304 74.7653 17.9652C74.5545 18.0999 74.3223 18.1893 74.0702 18.2307C73.8167 18.2734 73.5685 18.2934 73.3243 18.2934H72.8694V14.2453H73.3243C73.5685 14.2453 73.818 14.2667 74.0702 14.3081C74.3237 14.3508 74.5545 14.4388 74.7653 14.5736C74.9761 14.7083 75.1469 14.9111 75.2776 15.1806C75.4084 15.4502 75.4738 15.8131 75.4738 16.268C75.4738 16.723 75.4084 17.0859 75.2776 17.3554V17.3581Z" fill="#FDC82E"/>
<path d="M79.5234 14.348C79.7769 13.7743 80.1264 13.2806 80.5734 12.8683C81.0204 12.4561 81.5434 12.1385 82.1424 11.9197C82.7415 11.7009 83.3859 11.5901 84.0784 11.5901C84.7709 11.5901 85.4406 11.6996 86.0397 11.9197C86.6388 12.1385 87.1618 12.4547 87.6088 12.8683C88.0557 13.2819 88.4013 13.7756 88.6468 14.348C88.8909 14.9217 89.0137 15.5621 89.0137 16.2706C89.0137 16.9791 88.8936 17.6262 88.6535 18.2119C88.4133 18.7976 88.0731 19.306 87.6354 19.7369C87.1965 20.1665 86.6761 20.4988 86.0731 20.7309C85.47 20.9631 84.8056 21.0792 84.0811 21.0792C83.3566 21.0792 82.6908 20.9631 82.0891 20.7309C81.486 20.4988 80.9657 20.1679 80.5267 19.7369C80.0877 19.3073 79.7488 18.799 79.5087 18.2119C79.2685 17.6262 79.1484 16.9791 79.1484 16.2706C79.1484 15.5621 79.2752 14.9217 79.5274 14.348H79.5234ZM82.3319 17.41C82.492 17.7396 82.7202 17.9944 83.015 18.1759C83.3099 18.3573 83.6648 18.4481 84.0784 18.4481C84.492 18.4481 84.8456 18.3573 85.1404 18.1759C85.4353 17.9944 85.6635 17.7396 85.8236 17.41C85.9837 17.0818 86.0637 16.7016 86.0637 16.2719C86.0637 15.8423 85.9877 15.4514 85.8356 15.1272C85.6835 14.803 85.462 14.5495 85.1711 14.368C84.8803 14.1866 84.5147 14.0958 84.0771 14.0958C83.6635 14.0958 83.3099 14.1866 83.0137 14.368C82.7175 14.5495 82.4907 14.803 82.3306 15.1272C82.1705 15.4514 82.0904 15.833 82.0904 16.2719C82.0904 16.7109 82.1705 17.0818 82.3306 17.41H82.3319Z" fill="#FDC82E"/>
<path d="M99.7031 11.8422H103.056L99.008 21.2672L96.0353 16.8642L93.0627 21.2672L89.0146 11.8422H92.3676L93.7338 16.005L96.0367 11.3992L98.3395 16.005L99.7058 11.8422H99.7031Z" fill="#FDC82E"/>
<path d="M112.355 11.8422V21.1417L106.599 16.6881V20.6988H103.942V11.3992L109.698 15.8529V11.8422H112.355Z" fill="#FDC82E"/>
</svg>
