<svg width="24" height="25" viewBox="0 0 24 25" fill="none" xmlns="http://www.w3.org/2000/svg">
<path d="M19.9597 9.2934C19.2897 8.5534 18.2797 8.1234 16.8797 7.9734V7.2134C16.8797 5.8434 16.2997 4.5234 15.2797 3.6034C14.2497 2.6634 12.9097 2.2234 11.5197 2.3534C9.12975 2.5834 7.11975 4.8934 7.11975 7.3934V7.9734C5.71975 8.1234 4.70975 8.5534 4.03975 9.2934C3.06975 10.3734 3.09975 11.8134 3.20975 12.8134L3.90975 18.3834C4.11975 20.3334 4.90975 22.3334 9.20975 22.3334H14.7897C19.0897 22.3334 19.8797 20.3334 20.0897 18.3934L20.7897 12.8034C20.8997 11.8134 20.9197 10.3734 19.9597 9.2934ZM11.6597 3.7434C12.6597 3.6534 13.6097 3.9634 14.3497 4.6334C15.0797 5.2934 15.4897 6.2334 15.4897 7.2134V7.9134H8.50975V7.3934C8.50975 5.6134 9.97975 3.9034 11.6597 3.7434ZM8.41975 13.4834H8.40975C7.85975 13.4834 7.40975 13.0334 7.40975 12.4834C7.40975 11.9334 7.85975 11.4834 8.40975 11.4834C8.96975 11.4834 9.41975 11.9334 9.41975 12.4834C9.41975 13.0334 8.96975 13.4834 8.41975 13.4834ZM15.4197 13.4834H15.4097C14.8597 13.4834 14.4097 13.0334 14.4097 12.4834C14.4097 11.9334 14.8597 11.4834 15.4097 11.4834C15.9697 11.4834 16.4197 11.9334 16.4197 12.4834C16.4197 13.0334 15.9697 13.4834 15.4197 13.4834Z" fill="white"/>
</svg>
