<svg width="24" height="24" viewBox="0 0 24 24" fill="none" xmlns="http://www.w3.org/2000/svg">
<path d="M20.83 8.00984L14.28 2.76984C13 1.74984 11 1.73984 9.72996 2.75984L3.17996 8.00984C2.23996 8.75984 1.66996 10.2598 1.86996 11.4398L3.12996 18.9798C3.41996 20.6698 4.98996 21.9998 6.69996 21.9998H17.3C18.99 21.9998 20.59 20.6398 20.88 18.9698L22.14 11.4298C22.32 10.2598 21.75 8.75984 20.83 8.00984ZM12.75 17.9998C12.75 18.4098 12.41 18.7498 12 18.7498C11.59 18.7498 11.25 18.4098 11.25 17.9998V14.9998C11.25 14.5898 11.59 14.2498 12 14.2498C12.41 14.2498 12.75 14.5898 12.75 14.9998V17.9998Z" fill="#B9B9B9"/>
</svg>
