<svg width="16" height="17" viewBox="0 0 16 17" fill="none" xmlns="http://www.w3.org/2000/svg">
<path d="M13.7467 5.9667C13.0467 2.8867 10.3601 1.50003 8.00006 1.50003C8.00006 1.50003 8.00006 1.50003 7.9934 1.50003C5.64006 1.50003 2.94673 2.88003 2.24673 5.96003C1.46673 9.40003 3.5734 12.3134 5.48006 14.1467C6.18673 14.8267 7.0934 15.1667 8.00006 15.1667C8.90673 15.1667 9.8134 14.8267 10.5134 14.1467C12.4201 12.3134 14.5267 9.4067 13.7467 5.9667ZM8.00006 9.3067C6.84006 9.3067 5.90006 8.3667 5.90006 7.2067C5.90006 6.0467 6.84006 5.1067 8.00006 5.1067C9.16006 5.1067 10.1001 6.0467 10.1001 7.2067C10.1001 8.3667 9.16006 9.3067 8.00006 9.3067Z" fill="white"/>
</svg>
