<svg width="25" height="24" viewBox="0 0 25 24" fill="none" xmlns="http://www.w3.org/2000/svg">
<path d="M20.8552 14.06L19.7252 12.18C19.4752 11.77 19.2552 10.98 19.2552 10.5V8.62999C19.2552 4.99999 16.3052 2.04999 12.6852 2.04999C9.05524 2.05999 6.10524 4.99999 6.10524 8.62999V10.49C6.10524 10.97 5.88524 11.76 5.64524 12.17L4.51524 14.05C4.08524 14.78 3.98524 15.61 4.25524 16.33C4.52524 17.06 5.13524 17.64 5.93524 17.9C7.01524 18.26 8.10524 18.52 9.21524 18.71C9.32524 18.73 9.43524 18.74 9.54524 18.76C9.68524 18.78 9.83524 18.8 9.98524 18.82C10.2452 18.86 10.5052 18.89 10.7752 18.91C11.4052 18.97 12.0452 19 12.6852 19C13.3152 19 13.9452 18.97 14.5652 18.91C14.7952 18.89 15.0252 18.87 15.2452 18.84C15.4252 18.82 15.6052 18.8 15.7852 18.77C15.8952 18.76 16.0052 18.74 16.1152 18.72C17.2352 18.54 18.3452 18.26 19.4252 17.9C20.1952 17.64 20.7852 17.06 21.0652 16.32C21.3452 15.57 21.2652 14.75 20.8552 14.06ZM13.4152 9.99999C13.4152 10.42 13.0752 10.76 12.6552 10.76C12.2352 10.76 11.8952 10.42 11.8952 9.99999V6.89999C11.8952 6.47999 12.2352 6.13999 12.6552 6.13999C13.0752 6.13999 13.4152 6.47999 13.4152 6.89999V9.99999Z" fill="#B9B9B9"/>
<path d="M15.4957 20.01C15.0757 21.17 13.9657 22 12.6657 22C11.8757 22 11.0957 21.68 10.5457 21.11C10.2257 20.81 9.9857 20.41 9.8457 20C9.9757 20.02 10.1057 20.03 10.2457 20.05C10.4757 20.08 10.7157 20.11 10.9557 20.13C11.5257 20.18 12.1057 20.21 12.6857 20.21C13.2557 20.21 13.8257 20.18 14.3857 20.13C14.5957 20.11 14.8057 20.1 15.0057 20.07C15.1657 20.05 15.3257 20.03 15.4957 20.01Z" fill="#B9B9B9"/>
</svg>
